<svg width="179" height="100" viewBox="0 0 179 100" fill="none" xmlns="http://www.w3.org/2000/svg">
<path d="M11.4219 30.047V65.5H169.114V30.047H11.4219ZM167.125 63.5H86.5777V32.047H167.125V63.5Z" fill="#080829"/>
<path d="M19.8037 53.713V41.926H23.849V50.574H30.9849V53.713H19.8037Z" fill="white"/>
<path d="M46.9332 47.737C46.9332 51.49 44.6042 53.893 39.0644 53.893C34.0326 53.893 31.1807 51.821 31.1807 47.737C31.1807 44.118 33.8994 41.656 39.0644 41.656C44.3099 41.656 46.9332 43.923 46.9332 47.737ZM42.872 47.782C42.872 46.082 42.1699 44.719 39.0495 44.719C36.1975 44.719 35.2707 45.935 35.2707 47.782C35.2707 49.659 36.1209 50.875 39.0624 50.875C42.0228 50.875 42.872 49.584 42.872 47.782Z" fill="white"/>
<path d="M59.4471 53.713L59.3427 52.571C57.9895 53.5422 56.3423 54.0096 54.6839 53.893C52.1909 53.893 50.1145 53.142 48.9501 51.626C48.1821 50.5192 47.7943 49.1906 47.8453 47.842C47.8017 46.5217 48.203 45.2252 48.9839 44.163C50.1623 42.692 52.2983 41.716 55.4784 41.716C59.1368 41.716 61.2868 42.842 62.2116 44.734C62.4102 45.1796 62.5267 45.6576 62.5556 46.145H58.6854C58.5879 45.8488 58.4064 45.5878 58.1633 45.394C57.3924 44.88 56.4718 44.6422 55.55 44.719C55.0093 44.6531 54.4609 44.7033 53.941 44.8664C53.4211 45.0295 52.9415 45.3017 52.5339 45.665C52.0712 46.302 51.854 47.0862 51.9224 47.872C51.8688 48.6217 52.0686 49.3677 52.4892 49.989C52.9005 50.3743 53.3893 50.6661 53.9225 50.8449C54.4557 51.0236 55.021 51.0851 55.5798 51.025C56.69 51.1158 57.7921 50.7715 58.6555 50.064C58.8411 49.8308 58.9689 49.5566 59.0285 49.264H54.8638V46.731H62.6571V53.713H59.4471Z" fill="white"/>
<path d="M79.5435 47.737C79.5435 51.49 77.2136 53.893 71.6747 53.893C66.643 53.893 63.791 51.821 63.791 47.737C63.791 44.118 66.5097 41.656 71.6747 41.656C76.9163 41.656 79.5435 43.923 79.5435 47.737ZM75.4823 47.782C75.4823 46.082 74.7803 44.719 71.6598 44.719C68.8078 44.719 67.881 45.935 67.881 47.782C67.881 49.659 68.7323 50.875 71.6727 50.875C74.6321 50.875 75.4823 49.584 75.4823 47.782Z" fill="white"/>
<path d="M93.3916 53.668V41.881H96.2754V53.668H93.3916Z" fill="#080829"/>
<path d="M111.084 48.743C110.353 49.704 109.095 50.143 107.322 50.154C106.948 50.154 101.991 50.139 101.991 50.139V53.668H99.1689V41.881H107.323C107.976 41.8115 108.638 41.8812 109.262 42.0855C109.888 42.2899 110.462 42.6243 110.951 43.067C111.595 43.9112 111.908 44.9638 111.832 46.025C111.897 46.9902 111.634 47.9491 111.084 48.743ZM108.77 44.9C108.472 44.45 107.828 44.2 106.739 44.2H101.976V47.788H106.709C107.873 47.788 108.487 47.548 108.77 47.082C108.939 46.7537 109.011 46.384 108.979 46.016C109.004 45.6322 108.932 45.2483 108.77 44.9Z" fill="#080829"/>
<path d="M120.148 53.848C114.832 53.848 113.205 51.848 113.205 49.869H116.221C116.221 50.845 117.55 51.581 120.282 51.581C122.999 51.581 123.716 51.1 123.716 50.319C123.716 49.448 123.179 49.178 120.655 48.893C120.158 48.848 118.805 48.683 118.296 48.608C114.717 48.202 113.338 47.136 113.338 45.229C113.338 43.217 115.355 41.701 119.729 41.701C124.478 41.701 126.3 43.578 126.3 45.53H123.316C123.316 44.539 122.197 43.968 119.553 43.968C116.836 43.968 116.254 44.343 116.254 45.079C116.254 45.845 116.851 46.085 119.734 46.43C120.392 46.521 121.854 46.686 122.257 46.73C125.304 47.045 126.677 48.156 126.677 50.123C126.672 52.466 124.582 53.848 120.148 53.848Z" fill="#080829"/>
<path d="M135.169 53.833C131.273 53.833 128.734 52.286 128.734 49.033V41.881H131.585V49.073C131.585 50.56 132.796 51.55 135.289 51.55C137.543 51.55 138.887 50.62 138.887 49.073V41.881H141.709V49.3C141.709 52.257 139.35 53.833 135.169 53.833Z" fill="#080829"/>
<path d="M157.163 53.668V45.8L153.505 53.668H150.728L147.174 45.8V53.668H144.489V41.881H148.127L152.158 50.86L156.279 41.881H159.859V53.668H157.163Z" fill="#080829"/>
</svg>
