<svg width="179" height="100" viewBox="0 0 179 100" fill="none" xmlns="http://www.w3.org/2000/svg">
<path d="M32.5547 62.825H58.2047V37.175H32.5547V62.825ZM53.2677 47.532H47.8477V42.112H53.2677V47.532ZM37.4907 42.112H42.9137V52.468H53.2677V57.888H37.4907V42.112ZM74.9077 37.175C72.3712 37.175 69.8916 37.9272 67.7825 39.3364C65.6735 40.7457 64.0297 42.7486 63.059 45.0921C62.0883 47.4356 61.8343 50.0142 62.3292 52.5021C62.824 54.9899 64.0455 57.2751 65.8391 59.0687C67.6327 60.8623 69.9179 62.0837 72.4057 62.5786C74.8935 63.0734 77.4722 62.8195 79.8156 61.8488C82.1591 60.8781 84.1621 59.2343 85.5713 57.1252C86.9806 55.0161 87.7327 52.5366 87.7327 50C87.7288 46.5998 86.3763 43.3401 83.972 40.9358C81.5677 38.5315 78.3079 37.179 74.9077 37.175ZM74.9077 57.888C73.3476 57.888 71.8226 57.4254 70.5254 56.5586C69.2282 55.6919 68.2172 54.46 67.6202 53.0186C67.0231 51.5773 66.8669 49.9913 67.1713 48.4611C67.4757 46.931 68.2269 45.5255 69.3301 44.4224C70.4332 43.3192 71.8387 42.5679 73.3689 42.2636C74.899 41.9592 76.485 42.1154 77.9263 42.7125C79.3677 43.3095 80.5996 44.3205 81.4664 45.6177C82.3331 46.9149 82.7957 48.4399 82.7957 50C82.7926 52.0911 81.9605 54.0956 80.4819 55.5742C79.0033 57.0528 76.9988 57.8848 74.9077 57.888ZM133.627 37.175C131.09 37.1748 128.611 37.9268 126.501 39.3359C124.392 40.745 122.748 42.748 121.777 45.0914C120.807 47.4349 120.552 50.0136 121.047 52.5014C121.542 54.9893 122.763 57.2746 124.557 59.0683C126.35 60.862 128.636 62.0836 131.124 62.5785C133.611 63.0735 136.19 62.8195 138.534 61.8489C140.877 60.8782 142.88 59.2344 144.289 57.1253C145.699 55.0162 146.451 52.5366 146.451 50C146.447 46.6 145.095 43.3404 142.691 40.9361C140.286 38.5318 137.027 37.1793 133.627 37.175ZM133.627 57.888C132.067 57.8882 130.542 57.4258 129.244 56.5591C127.947 55.6925 126.936 54.4606 126.339 53.0193C125.741 51.578 125.585 49.9919 125.889 48.4618C126.194 46.9316 126.945 45.526 128.048 44.4227C129.151 43.3195 130.557 42.5681 132.087 42.2637C133.617 41.9592 135.203 42.1154 136.644 42.7124C138.086 43.3094 139.318 44.3204 140.184 45.6176C141.051 46.9148 141.514 48.4399 141.514 50C141.511 52.0909 140.679 54.0952 139.2 55.5738C137.722 57.0524 135.718 57.8846 133.627 57.888ZM104.267 37.175C101.73 37.175 99.2506 37.9272 97.1415 39.3364C95.0325 40.7457 93.3887 42.7486 92.418 45.0921C91.4473 47.4356 91.1933 50.0142 91.6882 52.5021C92.183 54.9899 93.4045 57.2751 95.1981 59.0687C96.9917 60.8623 99.2769 62.0837 101.765 62.5786C104.253 63.0734 106.831 62.8195 109.175 61.8488C111.518 60.8781 113.521 59.2343 114.931 57.1252C116.34 55.0161 117.092 52.5366 117.092 50C117.088 46.5998 115.735 43.3401 113.331 40.9358C110.927 38.5315 107.667 37.179 104.267 37.175ZM104.267 57.888C102.813 57.8887 101.388 57.4878 100.148 56.7295C98.9076 55.9713 97.9012 54.8851 97.2395 53.5909C96.5778 52.2967 96.2866 50.8448 96.398 49.3956C96.5093 47.9463 97.019 46.556 97.8707 45.3782C98.7223 44.2003 99.8829 43.2806 101.224 42.7207C102.566 42.1608 104.036 41.9824 105.472 42.2053C106.909 42.4281 108.255 43.0434 109.364 43.9834C110.473 44.9234 111.3 46.1515 111.755 47.532H104.267V52.468H111.755C111.234 54.0433 110.23 55.4147 108.886 56.3875C107.542 57.3604 105.926 57.8854 104.267 57.888Z" fill="#080829"/>
</svg>
