<svg width="179" height="100" viewBox="0 0 179 100" fill="none" xmlns="http://www.w3.org/2000/svg">
<path d="M89.193 55.374H84.073V41.686H89.193V55.374ZM84.573 54.874H88.693V42.186H84.573V54.874ZM96.317 55.374H91.3V41.686H101.782C103.284 41.5644 104.779 41.986 105.996 42.874C106.52 43.3533 106.926 43.9472 107.183 44.6093C107.439 45.2714 107.539 45.9838 107.475 46.691C107.55 47.913 107.161 49.1182 106.386 50.066C105.469 51.118 103.943 51.66 101.851 51.679C101.324 51.693 97.375 51.679 96.32 51.679L96.317 55.374ZM91.797 54.874H95.817V51.174H96.068C96.119 51.174 101.246 51.19 101.839 51.174C103.788 51.157 105.189 50.674 106.008 49.731C106.698 48.8735 107.04 47.7882 106.968 46.69C107.029 46.0564 106.944 45.4171 106.719 44.8218C106.493 44.2264 106.134 43.691 105.668 43.257C104.54 42.4471 103.159 42.0669 101.775 42.185H91.8L91.797 54.874ZM100.72 48.604H95.783V44.878H100.753C101.105 44.8293 101.464 44.8704 101.796 44.9975C102.129 45.1246 102.423 45.3336 102.653 45.605C102.862 45.952 102.96 46.354 102.935 46.758C102.954 47.1331 102.873 47.5065 102.7 47.84C102.463 48.1259 102.156 48.346 101.809 48.4791C101.463 48.6122 101.088 48.6538 100.72 48.6V48.604ZM96.283 48.104H100.72C101.54 48.104 102.048 47.933 102.273 47.581C102.397 47.3252 102.453 47.0418 102.436 46.758C102.458 46.4601 102.393 46.1622 102.25 45.9L102.244 45.891C102.006 45.541 101.533 45.378 100.753 45.378H96.283V48.104ZM116.6 55.576C112.11 55.576 109.43 54.461 108.409 52.168C108.242 51.7251 108.128 51.2638 108.071 50.794L108.027 50.506H113.369L113.404 50.716C113.445 50.9293 113.536 51.1299 113.668 51.302C113.879 51.557 114.583 51.985 116.919 51.985C119.727 51.985 119.727 51.492 119.727 51.227C119.727 50.78 119.402 50.627 117.112 50.383L116.677 50.342C115.815 50.261 114.725 50.158 114.227 50.115C110.027 49.735 108.152 48.43 108.152 45.885C108.152 43.212 111.343 41.485 116.282 41.485C120.311 41.485 122.907 42.547 123.996 44.644C124.254 45.1318 124.428 45.66 124.509 46.206L124.544 46.487H119.196L119.174 46.261C119.153 46.0844 119.078 45.9187 118.958 45.787C118.758 45.519 118.126 45.076 116.164 45.076C113.755 45.076 113.423 45.384 113.423 45.716C113.423 46.159 114.184 46.316 116.623 46.577C117.64 46.66 119.275 46.828 119.835 46.896C123.356 47.278 124.927 48.551 124.927 51.025C124.928 53.1 123.483 55.576 116.6 55.576ZM108.611 51.006C108.661 51.3358 108.747 51.6591 108.868 51.97C109.798 54.059 112.328 55.076 116.6 55.076C120.172 55.076 124.431 54.376 124.431 51.025C124.431 48.832 123.041 47.746 119.782 47.393C119.222 47.325 117.597 47.158 116.582 47.074C113.982 46.792 112.925 46.642 112.925 45.716C112.925 44.758 114.064 44.576 116.166 44.576C117.827 44.576 118.9 44.876 119.355 45.481C119.479 45.6301 119.573 45.802 119.631 45.987H123.965C123.878 45.6003 123.74 45.2267 123.555 44.876C122.555 42.957 120.112 41.985 116.284 41.985C111.649 41.985 108.654 43.516 108.654 45.885C108.654 48.145 110.335 49.261 114.273 49.617C114.773 49.66 115.862 49.763 116.726 49.845L117.164 49.886C119.291 50.11 120.229 50.25 120.229 51.227C120.229 52.279 119.016 52.485 116.921 52.485C114.983 52.485 113.759 52.194 113.286 51.621C113.14 51.4383 113.03 51.2296 112.962 51.006H108.611ZM134.427 55.559C129.207 55.559 126.327 53.448 126.327 49.614V41.686H131.379V49.614C131.379 50.929 132.556 51.683 134.607 51.683C136.567 51.683 137.784 50.896 137.784 49.631V41.686H142.784V50.034C142.789 53.545 139.74 55.559 134.424 55.559H134.427ZM126.827 42.186V49.614C126.827 54.352 131.585 55.059 134.427 55.059C137.365 55.059 142.292 54.406 142.292 50.034V42.186H138.292V49.631C138.292 51.181 136.848 52.183 134.615 52.183C132.281 52.183 130.887 51.223 130.887 49.614V42.186H126.827ZM163.972 55.374H159.204V49.194L156.5 55.374H152.341L149.665 49.206V55.374H144.88V41.686H151.174L154.444 49.233L157.872 41.686H163.978L163.972 55.374ZM159.704 54.874H163.472V42.186H158.19L154.428 50.465L150.842 42.186H145.376V54.874H149.161V46.8L152.661 54.877H156.161L159.698 46.812L159.704 54.874ZM19.554 41.936H15V55.124H27.584V51.613H19.554V41.936ZM36.776 41.636C30.963 41.636 27.906 44.391 27.906 48.436C27.906 53.006 31.115 55.324 36.776 55.324C43.008 55.324 45.629 52.636 45.629 48.436C45.629 44.171 42.672 41.634 36.776 41.634V41.636ZM36.759 45.063C37.1547 45.0612 37.5502 45.0842 37.943 45.132L32.852 50.223C32.6111 49.6781 32.4936 49.0866 32.508 48.491C32.508 46.422 33.55 45.061 36.759 45.061V45.063ZM36.776 51.951C36.3947 51.9527 36.0137 51.9313 35.635 51.887L40.735 46.787C40.9669 47.3229 41.0779 47.9033 41.06 48.487C41.06 50.5 40.1 51.949 36.776 51.949V51.951ZM54.652 50.151H59.339C59.27 50.4763 59.1262 50.781 58.919 51.041C57.9473 51.8326 56.7072 52.2178 55.458 52.116C54.8292 52.1833 54.1934 52.1146 53.5935 51.9146C52.9935 51.7147 52.4436 51.3881 51.981 50.957C51.5071 50.2619 51.282 49.4271 51.342 48.588C51.2653 47.7088 51.5101 46.8315 52.031 46.119C52.686 45.379 53.795 45.06 55.425 45.06C56.4621 44.9741 57.4979 45.2405 58.365 45.816C58.6383 46.0331 58.8426 46.3249 58.953 46.656H63.3C63.2684 46.1105 63.1372 45.5753 62.913 45.077C61.872 42.96 59.452 41.7 55.337 41.7C51.758 41.7 49.356 42.792 48.029 44.439C47.1526 45.6284 46.7027 47.0784 46.752 48.555C46.6953 50.065 47.1335 51.5521 48 52.79C49.311 54.49 51.646 55.326 54.452 55.326C56.3175 55.4561 58.1703 54.9336 59.693 53.848L59.811 55.124H63.422V47.312H54.652V50.151ZM73.671 41.633C67.859 41.633 64.801 44.388 64.801 48.433C64.801 53.003 68.009 55.321 73.671 55.321C79.904 55.321 82.525 52.633 82.525 48.433C82.525 44.171 79.568 41.634 73.671 41.634V41.633ZM73.655 45.06C74.0403 45.0589 74.4253 45.0809 74.808 45.126L69.737 50.2C69.5036 49.6612 69.39 49.0781 69.404 48.491C69.4 46.422 70.446 45.061 73.655 45.061V45.06ZM73.671 51.948C73.2796 51.9497 72.8885 51.927 72.5 51.88L77.617 46.762C77.8577 47.305 77.9729 47.8953 77.954 48.489C77.956 50.5 77 51.949 73.671 51.949V51.948Z" fill="#080829"/>
</svg>
