<svg width="179" height="100" viewBox="0 0 179 100" fill="none" xmlns="http://www.w3.org/2000/svg">
<path d="M68.3331 57.39C67.7416 57.4222 67.1566 57.2531 66.6724 56.91C66.47 56.7592 66.3073 56.5611 66.1982 56.3329C66.089 56.1046 66.0367 55.8531 66.0459 55.6V46.33C66.0411 46.2908 66.0452 46.2509 66.058 46.2135C66.0708 46.1761 66.0919 46.1421 66.1196 46.1142C66.1474 46.0862 66.1813 46.065 66.2185 46.0521C66.2556 46.0393 66.2952 46.0351 66.3343 46.04H68.0049C68.1939 46.04 68.2834 46.14 68.2834 46.33V54.88C68.2834 55.26 68.4524 55.45 68.8004 55.45C68.9479 55.4561 69.0955 55.4393 69.238 55.4C69.4369 55.4 69.5463 55.46 69.5562 55.64L69.7054 56.89C69.7125 56.9264 69.7118 56.964 69.7033 57.0002C69.6948 57.0363 69.6787 57.0702 69.6561 57.0996C69.6335 57.129 69.6049 57.1531 69.5722 57.1705C69.5395 57.1878 69.5035 57.1978 69.4666 57.2C69.1008 57.3215 68.7184 57.3856 68.3331 57.39Z" fill="#080829"/>
<path d="M77.7295 56.32C76.8902 57.0175 75.8353 57.399 74.7463 57.399C73.6574 57.399 72.6025 57.0175 71.7631 56.32C71.0253 55.571 70.6113 54.5593 70.6113 53.505C70.6113 52.4507 71.0253 51.439 71.7631 50.69C72.6042 49.9961 73.6584 49.6169 74.7463 49.6169C75.8343 49.6169 76.8885 49.9961 77.7295 50.69C78.4504 51.4459 78.8528 52.4527 78.8528 53.5C78.8528 54.5473 78.4504 55.5541 77.7295 56.31V56.32ZM73.3342 55C73.7238 55.3549 74.2307 55.5514 74.7562 55.5514C75.2819 55.5514 75.7887 55.3549 76.1783 55C76.5309 54.5924 76.7251 54.0703 76.7251 53.53C76.7251 52.9897 76.5309 52.4677 76.1783 52.06C75.7887 51.7052 75.2819 51.5086 74.7562 51.5086C74.2307 51.5086 73.7238 51.7052 73.3342 52.06C72.9817 52.4677 72.7875 52.9897 72.7875 53.53C72.7875 54.0703 72.9817 54.5924 73.3342 55Z" fill="#080829"/>
<path d="M88.0526 49.87C88.2415 49.87 88.331 49.97 88.331 50.16V57.33C88.3483 57.8139 88.2583 58.2957 88.0674 58.7402C87.8765 59.1848 87.5894 59.581 87.2272 59.9C86.4231 60.5895 85.3891 60.9468 84.3335 60.9C83.3799 60.9337 82.4392 60.6719 81.6386 60.15C81.2967 59.9243 81.0047 59.6302 80.7805 59.2861C80.5565 58.9421 80.4052 58.5554 80.3359 58.15C80.3359 57.95 80.3359 57.86 80.6044 57.86H82.2751C82.346 57.8624 82.4147 57.8854 82.4729 57.9262C82.5311 57.9671 82.5764 58.0239 82.6032 58.09C82.7115 58.3937 82.9275 58.6465 83.2098 58.8C83.5538 58.9785 83.9365 59.0678 84.3235 59.06C84.557 59.0729 84.7907 59.0388 85.011 58.9598C85.2311 58.8809 85.4336 58.7585 85.6063 58.6C85.764 58.4342 85.8869 58.2379 85.9672 58.0231C86.0475 57.8083 86.0838 57.5793 86.0737 57.35V56.72C85.4756 57.1624 84.7476 57.3912 84.0053 57.37C83.4858 57.389 82.9679 57.3022 82.4826 57.1149C81.9973 56.9276 81.5546 56.6436 81.1812 56.28C80.4642 55.5341 80.0635 54.5374 80.0635 53.5C80.0635 52.4627 80.4642 51.4659 81.1812 50.72C81.5564 50.3596 81.9996 50.0783 82.4847 49.8929C82.9696 49.7074 83.4867 49.6214 84.0053 49.64C84.769 49.6197 85.5165 49.8632 86.1234 50.33V50.17C86.1189 50.1317 86.1228 50.0928 86.1351 50.0562C86.1473 50.0196 86.1675 49.9863 86.1941 49.9585C86.2208 49.9307 86.2532 49.9093 86.2892 49.8957C86.3251 49.8821 86.3636 49.8768 86.4019 49.88L88.0526 49.87ZM84.1943 55.59C84.4504 55.598 84.7052 55.5493 84.9407 55.4473C85.176 55.3454 85.3863 55.1927 85.5566 55C85.8872 54.5707 86.0665 54.043 86.0665 53.5C86.0665 52.957 85.8872 52.4294 85.5566 52C85.3869 51.8099 85.1779 51.6595 84.9443 51.5593C84.7107 51.4591 84.458 51.4116 84.2042 51.42C83.9451 51.4118 83.6872 51.4603 83.4486 51.5622C83.2099 51.6641 82.9961 51.8169 82.822 52.01C82.4557 52.4207 82.2631 52.9588 82.285 53.51C82.267 54.0558 82.4553 54.5882 82.812 55C82.9866 55.1926 83.2005 55.3451 83.439 55.4469C83.6776 55.5487 83.9352 55.5975 84.1943 55.59Z" fill="#080829"/>
<path d="M96.912 56.32C96.0709 57.0139 95.0166 57.3931 93.9287 57.3931C92.8408 57.3931 91.7865 57.0139 90.9455 56.32C90.224 55.5624 89.8213 54.5539 89.8213 53.505C89.8213 52.456 90.224 51.4476 90.9455 50.69C91.7873 49.9979 92.8413 49.6198 93.9287 49.6198C95.0161 49.6198 96.0701 49.9979 96.912 50.69C97.6327 51.4459 98.0351 52.4527 98.0351 53.5C98.0351 54.5473 97.6327 55.5541 96.912 56.31V56.32ZM92.5067 55C92.6973 55.1824 92.9221 55.3249 93.1679 55.4193C93.4136 55.5137 93.6756 55.5581 93.9387 55.55C94.2 55.5568 94.4601 55.5117 94.7041 55.4174C94.9481 55.323 95.1712 55.1812 95.3607 55C95.7074 54.5896 95.8978 54.0686 95.8978 53.53C95.8978 52.9914 95.7074 52.4704 95.3607 52.06C95.1712 51.8788 94.9481 51.737 94.7041 51.6426C94.4601 51.5483 94.2 51.5032 93.9387 51.51C93.6756 51.5018 93.4136 51.5463 93.1679 51.6407C92.9221 51.7351 92.6973 51.8776 92.5067 52.06C92.1599 52.4704 91.9694 52.9914 91.9694 53.53C91.9694 54.0686 92.1599 54.5896 92.5067 55Z" fill="#080829"/>
<path d="M101.625 48.17C101.363 48.4014 101.025 48.5289 100.676 48.5289C100.327 48.5289 99.9886 48.4014 99.726 48.17C99.6069 48.0569 99.5119 47.9205 99.447 47.7692C99.3821 47.6179 99.3486 47.4548 99.3486 47.29C99.3486 47.1252 99.3821 46.9622 99.447 46.8108C99.5119 46.6595 99.6069 46.5231 99.726 46.41C99.9916 46.1844 100.328 46.0607 100.676 46.0607C101.024 46.0607 101.36 46.1844 101.625 46.41C101.745 46.5231 101.839 46.6595 101.905 46.8108C101.97 46.9622 102.002 47.1252 102.002 47.29C102.002 47.4548 101.97 47.6179 101.905 47.7692C101.839 47.9205 101.745 48.0569 101.625 48.17ZM101.834 57.39C101.244 57.4192 100.659 57.2503 100.174 56.91C99.9747 56.757 99.8143 56.5582 99.7071 56.3303C99.5998 56.1024 99.5484 55.852 99.557 55.6V50.16C99.5522 50.1208 99.5563 50.0809 99.5691 50.0435C99.5818 50.0061 99.603 49.9722 99.6307 49.9442C99.6586 49.9162 99.6924 49.895 99.7296 49.8822C99.7668 49.8693 99.8064 49.8652 99.8453 49.87H101.516C101.705 49.87 101.794 49.97 101.794 50.16V54.88C101.794 55.26 101.964 55.45 102.302 55.45C102.453 55.4555 102.603 55.4386 102.749 55.4C102.948 55.4 103.057 55.46 103.067 55.64L103.216 56.89C103.223 56.9265 103.222 56.964 103.215 57.0002C103.206 57.0363 103.19 57.0702 103.167 57.0996C103.145 57.129 103.116 57.1532 103.083 57.1705C103.05 57.1878 103.015 57.1979 102.978 57.2C102.609 57.3223 102.223 57.3864 101.834 57.39Z" fill="#080829"/>
<path d="M109.362 49.63C109.884 49.6093 110.404 49.6942 110.894 49.8797C111.382 50.0652 111.828 50.3476 112.206 50.71C112.909 51.4689 113.3 52.4677 113.3 53.505C113.3 54.5423 112.909 55.5411 112.206 56.3C111.83 56.6656 111.384 56.9508 110.896 57.1381C110.406 57.3255 109.885 57.4112 109.362 57.39C108.617 57.4067 107.888 57.1784 107.284 56.74V60.35C107.284 60.54 107.184 60.63 106.996 60.63H105.325C105.287 60.6372 105.247 60.6349 105.211 60.6234C105.174 60.6118 105.14 60.5914 105.112 60.5638C105.085 60.5362 105.064 60.5023 105.053 60.4651C105.042 60.4278 105.04 60.3883 105.046 60.35V52.15C105.058 52.0698 105.051 51.988 105.026 51.911C105.001 51.8341 104.958 51.7641 104.9 51.7068C104.844 51.6495 104.774 51.6064 104.697 51.5809C104.621 51.5554 104.539 51.5482 104.46 51.56H104.132C103.913 51.56 103.803 51.48 103.803 51.32V50.14C103.799 50.067 103.818 49.9944 103.86 49.9344C103.902 49.8743 103.963 49.8304 104.032 49.81C104.376 49.6843 104.74 49.6233 105.106 49.63C105.471 49.5975 105.837 49.6753 106.158 49.8535C106.478 50.0317 106.739 50.302 106.906 50.63C107.226 50.3042 107.609 50.0474 108.032 49.8755C108.454 49.7036 108.907 49.62 109.362 49.63ZM107.811 55C107.988 55.1864 108.201 55.3347 108.437 55.436C108.673 55.5373 108.927 55.5895 109.183 55.5895C109.44 55.5895 109.693 55.5373 109.929 55.436C110.165 55.3347 110.379 55.1864 110.556 55C110.929 54.5811 111.125 54.0322 111.102 53.47C111.128 52.9073 110.931 52.3572 110.556 51.94C110.379 51.7537 110.165 51.6054 109.929 51.504C109.693 51.4027 109.44 51.3505 109.183 51.3505C108.927 51.3505 108.673 51.4027 108.437 51.504C108.201 51.6054 107.988 51.7537 107.811 51.94C107.449 52.3646 107.261 52.9113 107.284 53.47C107.264 54.0283 107.452 54.5739 107.811 55Z" fill="#080829"/>
<path d="M117.994 57.39C117.101 57.4269 116.216 57.2122 115.439 56.77C115.126 56.581 114.861 56.3237 114.661 56.0173C114.461 55.7109 114.333 55.3632 114.285 55C114.285 54.8 114.355 54.7 114.574 54.7H116.035C116.105 54.7027 116.173 54.7247 116.23 54.7635C116.288 54.8024 116.335 54.8565 116.363 54.92C116.572 55.46 117.119 55.73 117.994 55.73C118.3 55.744 118.604 55.6822 118.879 55.55C118.975 55.5068 119.056 55.4384 119.116 55.3521C119.176 55.2658 119.21 55.1648 119.217 55.06C119.217 54.8 119.058 54.62 118.74 54.5C118.362 54.3737 117.972 54.2898 117.577 54.25C117.107 54.1966 116.643 54.1131 116.184 54C115.739 53.8986 115.333 53.6652 115.021 53.33C114.837 53.1022 114.702 52.8387 114.623 52.556C114.545 52.2733 114.525 51.9773 114.565 51.6866C114.604 51.3958 114.704 51.1164 114.856 50.8659C115.008 50.6153 115.21 50.3989 115.449 50.23C116.166 49.7709 117.006 49.5472 117.855 49.59C118.676 49.5621 119.49 49.7665 120.202 50.18C120.488 50.3435 120.736 50.5692 120.925 50.8408C121.115 51.1124 121.241 51.423 121.296 51.75C121.296 51.95 121.206 52.05 121.027 52.05H119.556C119.494 52.0537 119.432 52.0385 119.379 52.0064C119.326 51.9743 119.283 51.9267 119.257 51.87C119.159 51.6332 118.974 51.4434 118.74 51.34C118.477 51.2014 118.182 51.1325 117.885 51.14C117.594 51.1241 117.302 51.1825 117.04 51.31C116.947 51.346 116.867 51.409 116.81 51.491C116.753 51.573 116.722 51.6701 116.721 51.77C116.727 51.9068 116.777 52.0379 116.864 52.1441C116.949 52.2502 117.067 52.3259 117.199 52.36C117.581 52.5047 117.977 52.6054 118.382 52.66C118.848 52.7216 119.309 52.8083 119.764 52.92C120.21 53.0215 120.616 53.2548 120.928 53.59C121.095 53.7747 121.224 53.9908 121.308 54.226C121.391 54.4611 121.428 54.7106 121.415 54.96C121.424 55.3057 121.343 55.6477 121.18 55.9527C121.018 56.2576 120.781 56.5151 120.49 56.7C119.747 57.1796 118.876 57.4203 117.994 57.39Z" fill="#080829"/>
<path d="M131.926 56.89C131.932 56.9255 131.93 56.9618 131.922 56.9967C131.913 57.0316 131.898 57.0645 131.876 57.0934C131.855 57.1223 131.829 57.1466 131.798 57.1649C131.767 57.1832 131.733 57.1951 131.697 57.2C131.334 57.3192 130.955 57.3832 130.574 57.39C130.196 57.4294 129.814 57.37 129.466 57.2175C129.117 57.0651 128.813 56.8249 128.585 56.52C127.883 57.1273 126.974 57.4389 126.049 57.39C125.619 57.4099 125.191 57.3392 124.79 57.1825C124.389 57.0258 124.025 56.7865 123.722 56.48C123.421 56.1589 123.187 55.7799 123.035 55.3658C122.883 54.9517 122.815 54.5109 122.837 54.07V50.16C122.837 49.97 122.927 49.87 123.115 49.87H124.786C124.975 49.87 125.065 49.97 125.065 50.16V53.77C125.047 54.2198 125.199 54.6596 125.492 55C125.638 55.1559 125.816 55.2786 126.013 55.3597C126.21 55.4407 126.423 55.4784 126.636 55.47C126.853 55.4796 127.071 55.4456 127.276 55.3701C127.481 55.2946 127.669 55.179 127.829 55.03C127.98 54.873 128.098 54.6863 128.175 54.4817C128.253 54.277 128.286 54.0586 128.276 53.84V50.16C128.276 49.97 128.366 49.87 128.555 49.87H130.245C130.434 49.87 130.524 49.97 130.524 50.16V54.87C130.524 55.26 130.693 55.45 131.021 55.45C131.175 55.456 131.329 55.4392 131.478 55.4C131.516 55.3894 131.555 55.3875 131.594 55.3944C131.633 55.4014 131.668 55.417 131.7 55.4401C131.732 55.4632 131.758 55.4932 131.776 55.5278C131.795 55.5624 131.805 55.6008 131.807 55.64L131.926 56.89Z" fill="#080829"/>
<path d="M147.727 56.89C147.736 56.9258 147.737 56.9632 147.73 56.9993C147.722 57.0355 147.707 57.0697 147.685 57.0993C147.663 57.1289 147.636 57.1533 147.603 57.1707C147.571 57.1881 147.535 57.1981 147.498 57.2C147.128 57.3209 146.744 57.3849 146.355 57.39C145.763 57.4207 145.179 57.2517 144.694 56.91C144.484 56.7636 144.314 56.5675 144.198 56.339C144.082 56.1104 144.023 55.8566 144.028 55.6V53.25C144.049 52.8016 143.9 52.3619 143.61 52.02C143.471 51.8637 143.298 51.7405 143.106 51.6592C142.913 51.5779 142.705 51.5406 142.496 51.55C142.309 51.5429 142.122 51.5787 141.949 51.655C141.777 51.7312 141.624 51.8457 141.502 51.99C141.24 52.3251 141.105 52.7438 141.124 53.17V56.86C141.124 57.05 141.035 57.15 140.846 57.15H139.165C139.126 57.1549 139.087 57.1507 139.05 57.1379C139.012 57.125 138.978 57.1038 138.95 57.0758C138.923 57.0479 138.902 57.0139 138.889 56.9765C138.876 56.9391 138.872 56.8993 138.877 56.86V53.25C138.899 52.8065 138.76 52.3699 138.489 52.02C138.368 51.873 138.216 51.7547 138.043 51.6735C137.872 51.5922 137.685 51.5501 137.495 51.55C137.292 51.5418 137.09 51.5767 136.901 51.6525C136.712 51.7284 136.542 51.8434 136.401 51.99C136.116 52.3144 135.97 52.7381 135.993 53.17V56.86C135.998 56.8993 135.994 56.9391 135.981 56.9765C135.968 57.0139 135.947 57.0479 135.919 57.0758C135.892 57.1038 135.858 57.125 135.821 57.1379C135.783 57.1507 135.743 57.1549 135.705 57.15H134.084C133.895 57.15 133.805 57.05 133.805 56.86V52.15C133.817 52.0698 133.81 51.988 133.784 51.911C133.76 51.834 133.717 51.7641 133.659 51.7068C133.602 51.6495 133.533 51.6064 133.456 51.5809C133.38 51.5554 133.298 51.5482 133.219 51.56H132.89C132.672 51.56 132.562 51.48 132.562 51.32V50.14C132.557 50.067 132.577 49.9944 132.619 49.9343C132.661 49.8743 132.721 49.8304 132.791 49.81C133.135 49.6843 133.499 49.6232 133.865 49.63C134.216 49.5999 134.569 49.6703 134.882 49.8331C135.195 49.9959 135.456 50.2444 135.635 50.55C135.97 50.2302 136.368 49.9835 136.802 49.8252C137.237 49.6669 137.699 49.6005 138.161 49.63C138.609 49.608 139.056 49.6925 139.465 49.8767C139.875 50.0609 140.235 50.3395 140.518 50.69C140.847 50.3303 141.251 50.0486 141.702 49.8653C142.152 49.682 142.638 49.6016 143.123 49.63C143.557 49.6096 143.991 49.6799 144.396 49.8365C144.802 49.9932 145.17 50.2327 145.48 50.54C145.782 50.8605 146.016 51.2394 146.168 51.6536C146.32 52.0679 146.388 52.509 146.365 52.95V54.88C146.365 55.26 146.534 55.45 146.852 55.45C147.006 55.4572 147.16 55.4404 147.309 55.4C147.515 55.4 147.625 55.48 147.638 55.64L147.727 56.89Z" fill="#080829"/>
<path d="M31.1216 48.57C31.8553 45.6047 33.5544 42.9714 35.9484 41.0895C38.3424 39.2076 41.2937 38.1853 44.3324 38.1853C47.3711 38.1853 50.3223 39.2076 52.7164 41.0895C55.1104 42.9714 56.8096 45.6047 57.5431 48.57H56.3498C54.3369 48.5402 52.3651 49.1452 50.7115 50.3C50.6162 50.3695 50.5165 50.4329 50.4132 50.49H50.274C50.1708 50.4329 50.0711 50.3695 49.9757 50.3C48.3074 49.1719 46.3428 48.5694 44.3324 48.5694C42.3221 48.5694 40.3573 49.1719 38.6891 50.3C38.5937 50.3695 38.4941 50.4329 38.3907 50.49H38.2515C38.1483 50.4329 38.0487 50.3695 37.9532 50.3C36.2997 49.1452 34.3279 48.5402 32.3149 48.57H31.1216ZM54.2019 54.84C54.8145 54.3603 55.5737 54.1093 56.3498 54.13H57.9508V50.92H56.3498C54.9828 50.9034 53.6469 51.3313 52.5412 52.14C51.919 52.6013 51.1664 52.8501 50.3933 52.8501C49.6203 52.8501 48.8676 52.6013 48.2454 52.14C47.1116 51.3464 45.7634 50.9209 44.3821 50.9209C43.0007 50.9209 41.6525 51.3464 40.5188 52.14C39.8966 52.6013 39.1439 52.8501 38.3708 52.8501C37.5979 52.8501 36.8451 52.6013 36.2229 52.14C35.1036 51.3209 33.7486 50.8925 32.3646 50.92H30.7139V54.13H32.3149C33.091 54.1093 33.8502 54.3603 34.4628 54.84C35.5944 55.6341 36.9412 56.06 38.3211 56.06C39.7011 56.06 41.0478 55.6341 42.1795 54.84C42.7928 54.3617 43.5515 54.111 44.3274 54.13C45.1038 54.1076 45.8636 54.3588 46.4753 54.84C47.6091 55.6336 48.9573 56.0591 50.3386 56.0591C51.72 56.0591 53.0682 55.6336 54.2019 54.84ZM54.2019 60.58C54.8145 60.1003 55.5737 59.8493 56.3498 59.87H57.9508V56.66H56.3498C54.9828 56.6434 53.6469 57.0713 52.5412 57.88C51.919 58.3413 51.1664 58.5901 50.3933 58.5901C49.6203 58.5901 48.8676 58.3413 48.2454 57.88C47.1116 57.0864 45.7634 56.6609 44.3821 56.6609C43.0007 56.6609 41.6525 57.0864 40.5188 57.88C39.8966 58.3413 39.1439 58.5901 38.3708 58.5901C37.5979 58.5901 36.8451 58.3413 36.2229 57.88C35.1036 57.0609 33.7486 56.6325 32.3646 56.66H30.7139V59.87H32.3149C33.091 59.8493 33.8502 60.1003 34.4628 60.58C35.5944 61.3741 36.9412 61.8 38.3211 61.8C39.7011 61.8 41.0478 61.3741 42.1795 60.58C42.7928 60.1017 43.5515 59.851 44.3274 59.87C45.1038 59.8476 45.8636 60.0988 46.4753 60.58C47.6091 61.3736 48.9573 61.7991 50.3386 61.7991C51.72 61.7991 53.0682 61.3736 54.2019 60.58Z" fill="#080829"/>
</svg>
