<svg width="179" height="100" viewBox="0 0 179 100" fill="none" xmlns="http://www.w3.org/2000/svg">
<path d="M43.7495 40.7297V36.9231H31.8145V63.0769H43.7495V59.2703C41.3046 59.2703 38.9598 58.2935 37.231 56.555C35.5022 54.8165 34.531 52.4586 34.531 50C34.531 47.5414 35.5022 45.1834 37.231 43.4449C38.9598 41.7064 41.3046 40.7297 43.7495 40.7297Z" fill="#080829"/>
<path d="M43.749 40.7297V59.2703C46.194 59.2703 48.5387 58.2935 50.2675 56.555C51.9964 54.8165 52.9675 52.4586 52.9675 50C52.9675 47.5414 51.9964 45.1834 50.2675 43.4449C48.5387 41.7064 46.194 40.7297 43.749 40.7297Z" fill="#080829"/>
<path d="M59.665 43.0586H62.337V56.0011H59.665V43.0586Z" fill="#080829"/>
<path d="M63.8344 51.5674C63.8344 50.6363 64.1094 49.7261 64.6244 48.9522C65.1393 48.1783 65.8712 47.5756 66.7272 47.2205C67.5833 46.8655 68.5248 46.7739 69.4326 46.9575C70.3404 47.1412 71.1735 47.5917 71.8263 48.252C72.4791 48.9124 72.9225 49.7527 73.0999 50.6666C73.2773 51.5806 73.1809 52.5269 72.8228 53.3857C72.4647 54.2443 71.8613 54.9769 71.0889 55.4903C70.3164 56.0038 69.4097 56.275 68.4837 56.2697C67.8695 56.2746 67.2607 56.1561 66.6927 55.9211C66.1246 55.6861 65.6089 55.3395 65.1759 54.9016C64.7429 54.4636 64.4012 53.943 64.1708 53.3705C63.9405 52.798 63.8261 52.185 63.8344 51.5674ZM70.5323 51.5674C70.5217 51.166 70.3938 50.7765 70.1643 50.4479C69.9348 50.1192 69.6142 49.8658 69.2423 49.7195C68.8704 49.5731 68.4639 49.5402 68.0736 49.6251C67.6833 49.7098 67.3265 49.9084 67.0478 50.196C66.769 50.4837 66.5809 50.8475 66.5068 51.2421C66.4326 51.6367 66.4759 52.0446 66.631 52.4146C66.7861 52.7846 67.0464 53.1005 67.3791 53.3225C67.7117 53.5446 68.1021 53.6631 68.5015 53.6633C68.7735 53.6687 69.0435 53.6175 69.2948 53.5131C69.5462 53.4088 69.7734 53.2534 69.9623 53.0567C70.1512 52.86 70.2977 52.6261 70.3928 52.37C70.4878 52.1137 70.5292 51.8405 70.5145 51.5674H70.5323Z" fill="#080829"/>
<path d="M83.7051 47.134V55.5623C83.7051 58.536 81.3893 59.7989 79.0468 59.7989C78.2205 59.867 77.3917 59.702 76.6538 59.3222C75.9158 58.9424 75.2979 58.363 74.8695 57.6493L77.123 56.3416C77.3055 56.7118 77.596 57.0173 77.9557 57.2173C78.3153 57.4173 78.7269 57.5024 79.1358 57.4612C79.3964 57.4934 79.6608 57.4674 79.9101 57.385C80.1594 57.3025 80.3875 57.1658 80.5781 56.9843C80.7689 56.8028 80.9172 56.5813 81.0128 56.3355C81.1084 56.0897 81.1487 55.8257 81.131 55.5623V54.7473C80.8201 55.1264 80.4255 55.4273 79.9787 55.6264C79.5319 55.8254 79.0452 55.9169 78.5569 55.8937C77.3758 55.8937 76.2431 55.4219 75.408 54.582C74.5728 53.7422 74.1035 52.6031 74.1035 51.4153C74.1035 50.2276 74.5728 49.0885 75.408 48.2487C76.2431 47.4088 77.3758 46.9369 78.5569 46.9369C79.0452 46.9137 79.5319 47.0053 79.9787 47.2043C80.4255 47.4033 80.8201 47.7043 81.131 48.0834V47.1877L83.7051 47.134ZM81.131 51.3885C81.1487 50.96 81.0387 50.5359 80.8148 50.1708C80.591 49.8057 80.2637 49.5163 79.875 49.3398C79.4863 49.1632 79.054 49.1077 78.6337 49.1803C78.2133 49.2528 77.8241 49.4501 77.5161 49.7469C77.2083 50.0436 76.9957 50.4262 76.9057 50.8455C76.8158 51.2648 76.8526 51.7014 77.0114 52.0995C77.1703 52.4975 77.4439 52.8387 77.797 53.0791C78.1503 53.3195 78.5669 53.4482 78.9933 53.4485C79.2717 53.4687 79.5511 53.4299 79.8135 53.3348C80.076 53.2396 80.3157 53.0901 80.5172 52.8959C80.7187 52.7018 80.8774 52.4673 80.9831 52.2076C81.0888 51.948 81.1392 51.6689 81.131 51.3885Z" fill="#080829"/>
<path d="M85.2103 51.5675C85.2103 50.6371 85.4848 49.7276 85.9989 48.9541C86.5132 48.1806 87.244 47.5779 88.099 47.2223C88.9538 46.8667 89.8946 46.774 90.8019 46.9562C91.7092 47.1384 92.5423 47.5871 93.196 48.2456C93.8495 48.9042 94.2941 49.7429 94.4735 50.6556C94.653 51.5684 94.5592 52.5142 94.2039 53.3732C93.8485 54.2324 93.2478 54.9661 92.4777 55.4817C91.7076 55.9974 90.8027 56.2716 89.8775 56.2699C89.2621 56.2759 88.6517 56.1583 88.0822 55.9239C87.5127 55.6896 86.9954 55.3434 86.5608 54.9054C86.126 54.4674 85.7828 53.9466 85.5508 53.3734C85.319 52.8003 85.2031 52.1863 85.2103 51.5675ZM91.9081 51.5675C91.8976 51.1657 91.7694 50.7759 91.5396 50.447C91.3098 50.1182 90.9885 49.8649 90.6161 49.7188C90.2438 49.5727 89.8368 49.5403 89.4463 49.6259C89.0557 49.7113 88.6989 49.9109 88.4205 50.1994C88.1422 50.4879 87.9548 50.8526 87.8817 51.2478C87.8086 51.643 87.853 52.051 88.0095 52.4209C88.166 52.7908 88.4276 53.106 88.7615 53.327C89.0954 53.548 89.4866 53.665 89.8863 53.6634C90.1583 53.6688 90.4283 53.6177 90.6797 53.5132C90.931 53.4089 91.1582 53.2535 91.3471 53.0568C91.536 52.8601 91.6825 52.6262 91.7776 52.3701C91.8726 52.1138 91.914 51.8406 91.8993 51.5675H91.9081Z" fill="#080829"/>
<path d="M95.7822 44.7604C95.7822 44.4452 95.8752 44.1369 96.0494 43.8747C96.2236 43.6125 96.4713 43.4082 96.7608 43.2875C97.0506 43.1668 97.3694 43.1353 97.6769 43.1968C97.9844 43.2583 98.2669 43.4101 98.4887 43.6331C98.7104 43.8561 98.8613 44.1402 98.9226 44.4494C98.9837 44.7587 98.9523 45.0792 98.8323 45.3706C98.7124 45.6619 98.5091 45.9109 98.2484 46.0861C97.9877 46.2612 97.6812 46.3548 97.3676 46.3548C96.9486 46.3501 96.548 46.1806 96.2517 45.8826C95.9554 45.5847 95.7868 45.1819 95.7822 44.7604ZM96.0405 47.134H98.7126V56.0012H96.0405V47.134Z" fill="#080829"/>
<path d="M110.149 51.5676C110.179 52.1573 110.092 52.7472 109.895 53.3033C109.697 53.8593 109.392 54.3706 108.997 54.8076C108.602 55.2446 108.125 55.5988 107.594 55.8498C107.062 56.1007 106.487 56.2435 105.901 56.2699C105.402 56.3032 104.903 56.2231 104.441 56.0354C103.978 55.8477 103.564 55.5574 103.229 55.1862V59.566H100.557V47.134H103.229V47.967C103.565 47.5968 103.979 47.3078 104.442 47.1217C104.904 46.9355 105.403 46.8571 105.901 46.8922C106.484 46.9186 107.058 47.0606 107.588 47.3098C108.117 47.5591 108.593 47.9109 108.987 48.345C109.382 48.7792 109.687 49.2872 109.887 49.8402C110.086 50.3931 110.176 50.98 110.149 51.5676ZM107.477 51.5676C107.467 51.1516 107.334 50.748 107.096 50.4073C106.858 50.0667 106.526 49.8041 106.141 49.6526C105.755 49.5011 105.334 49.4674 104.93 49.5556C104.525 49.6439 104.155 49.8502 103.868 50.1488C103.58 50.4473 103.385 50.8247 103.309 51.2339C103.234 51.6429 103.279 52.0654 103.441 52.4484C103.604 52.8313 103.874 53.1577 104.219 53.3866C104.565 53.6156 104.97 53.7368 105.384 53.7352C105.667 53.7472 105.95 53.699 106.214 53.5935C106.477 53.4879 106.716 53.3276 106.913 53.123C107.111 52.9183 107.263 52.6739 107.36 52.4059C107.458 52.1378 107.498 51.8522 107.477 51.5676Z" fill="#080829"/>
<path d="M118.281 53.3409C118.281 55.3831 116.499 56.2519 114.612 56.2519C113.841 56.3216 113.069 56.1574 112.392 55.7806C111.715 55.4038 111.167 54.8316 110.817 54.1381L113.115 52.8304C113.206 53.15 113.404 53.4285 113.674 53.6192C113.945 53.81 114.273 53.9015 114.603 53.8784C115.236 53.8784 115.556 53.6813 115.556 53.323C115.556 52.3467 111.218 52.8662 111.218 49.7941C111.218 47.8594 112.839 46.8921 114.674 46.8921C115.372 46.8606 116.064 47.0198 116.679 47.3525C117.294 47.6853 117.807 48.1792 118.165 48.7819L115.868 50.0001C115.766 49.769 115.601 49.5725 115.39 49.4342C115.18 49.2959 114.934 49.2218 114.683 49.2208C114.22 49.2208 113.944 49.4 113.944 49.7134C113.944 50.7345 118.281 50.0628 118.281 53.3409Z" fill="#080829"/>
<path d="M127.963 47.1339V56.0012H125.291V55.1682C124.987 55.5369 124.602 55.8287 124.166 56.0201C123.73 56.2115 123.254 56.297 122.779 56.2699C120.998 56.2699 119.475 54.989 119.475 52.5976V47.1339H122.147V52.1945C122.126 52.4061 122.151 52.6197 122.22 52.8207C122.289 53.0216 122.4 53.205 122.546 53.3584C122.694 53.5116 122.872 53.6311 123.068 53.7086C123.265 53.786 123.476 53.8195 123.688 53.8068C124.65 53.8068 125.327 53.2335 125.327 52.0154V47.1339H127.963Z" fill="#080829"/>
<path d="M143.104 50.5553V56.0011H140.432V50.7882C140.432 49.8925 140.013 49.3372 139.167 49.3372C138.322 49.3372 137.787 49.9552 137.787 51.0032V56.0011H135.115V50.7882C135.115 49.8925 134.696 49.3372 133.85 49.3372C133.004 49.3372 132.47 49.9552 132.47 51.0032V56.0011H129.798V47.1339H132.47V47.9489C132.747 47.5889 133.107 47.3037 133.522 47.1192C133.935 46.9347 134.388 46.8566 134.839 46.892C135.291 46.8683 135.741 46.9632 136.145 47.1674C136.55 47.3715 136.895 47.6779 137.146 48.0564C137.44 47.6609 137.828 47.3467 138.275 47.1431C138.722 46.9394 139.213 46.8531 139.702 46.892C141.786 46.892 143.104 48.343 143.104 50.5553Z" fill="#080829"/>
<path d="M145.349 47.0802C146.431 47.0802 147.309 46.198 147.309 45.1097C147.309 44.0215 146.431 43.1393 145.349 43.1393C144.267 43.1393 143.39 44.0215 143.39 45.1097C143.39 46.198 144.267 47.0802 145.349 47.0802Z" fill="#080829"/>
</svg>
