<svg width="179" height="100" viewBox="0 0 179 100" fill="none" xmlns="http://www.w3.org/2000/svg">
<path d="M42.4612 48.371C42.0843 48.7523 41.7958 49.2124 41.616 49.7187C41.4362 50.225 41.3697 50.7649 41.4211 51.3L41.4032 51.282C41.456 51.9118 41.3715 52.5457 41.1557 53.1393C40.9398 53.733 40.5977 54.2721 40.1532 54.7191C39.7088 55.166 39.1727 55.51 38.5823 55.7271C37.992 55.9442 37.3617 56.0292 36.7354 55.976L36.7533 55.994C36.0041 55.9239 35.2515 56.0878 34.5984 56.4635C33.9453 56.8392 33.4232 57.4083 33.1035 58.0933C32.7837 58.7783 32.6819 59.5457 32.8117 60.291C32.9416 61.0364 33.297 61.7233 33.8292 62.2581C34.3615 62.7929 35.045 63.1496 35.7862 63.2795C36.5275 63.4095 37.2906 63.3063 37.9714 62.9842C38.6523 62.662 39.2177 62.1365 39.5907 61.4794C39.9638 60.8222 40.1261 60.0653 40.0557 59.312L40.0746 59.33C40.0217 58.7001 40.1062 58.0663 40.322 57.4726C40.5379 56.879 40.8801 56.3399 41.3245 55.8929C41.769 55.446 42.3051 55.1019 42.8954 54.8848C43.4858 54.6677 44.116 54.5828 44.7424 54.636L44.7235 54.618C45.3355 54.6733 45.9515 54.5724 46.5145 54.3246C47.0773 54.0768 47.5689 53.6901 47.9436 53.2004C48.3183 52.7107 48.564 52.1337 48.658 51.523C48.752 50.9124 48.6911 50.2877 48.4811 49.707C48.2711 49.1263 47.9187 48.6083 47.4566 48.201C46.9945 47.7937 46.4376 47.5103 45.8376 47.3771C45.2375 47.2439 44.6137 47.2651 44.024 47.4388C43.4344 47.6126 42.8979 47.9332 42.4642 48.371H42.4612Z" fill="#080829"/>
<path d="M35.1252 53.636L35.1063 53.618C35.6386 53.6719 36.1762 53.6062 36.6803 53.4256C37.1843 53.245 37.642 52.9541 38.0205 52.5738C38.3989 52.1935 38.6886 51.7333 38.8686 51.2266C39.0486 50.7199 39.1143 50.1794 39.0611 49.644L39.08 49.662C39.0271 49.0321 39.1115 48.3983 39.3274 47.8046C39.5433 47.211 39.8855 46.6719 40.3299 46.2249C40.7744 45.778 41.3105 45.4339 41.9008 45.2169C42.4911 44.9998 43.1214 44.9148 43.7478 44.968L43.7289 44.95C44.4782 45.0208 45.2309 44.8574 45.8844 44.4821C46.5379 44.1068 47.0605 43.538 47.3807 42.8531C47.7009 42.1682 47.8032 41.4007 47.6737 40.6552C47.5443 39.9097 47.1892 39.2225 46.657 38.6874C46.1249 38.1522 45.4416 37.7952 44.7002 37.665C43.9589 37.5347 43.1956 37.6377 42.5146 37.9597C41.8335 38.2817 41.2678 38.8071 40.8947 39.4643C40.5215 40.1215 40.359 40.8785 40.4294 41.632L40.4115 41.613C40.4645 42.2429 40.3802 42.8768 40.1644 43.4706C39.9486 44.0643 39.6064 44.6035 39.1619 45.0505C38.7174 45.4974 38.1814 45.8415 37.5909 46.0585C37.0005 46.2755 36.3701 46.3603 35.7438 46.307L35.7617 46.326C35.2292 46.2721 34.6917 46.3378 34.1877 46.5184C33.6837 46.6989 33.2259 46.9899 32.8474 47.3702C32.4689 47.7505 32.1793 48.2107 31.9993 48.7174C31.8194 49.2241 31.7536 49.7646 31.8069 50.3L31.789 50.282C31.8417 50.9118 31.757 51.5456 31.5412 52.1392C31.3252 52.7327 30.9831 53.2718 30.5387 53.7187C30.0942 54.1656 29.5582 54.5096 28.9679 54.7268C28.3777 54.9439 27.7475 55.029 27.1212 54.976L27.1391 54.994C26.3898 54.9232 25.637 55.0866 24.9835 55.4619C24.33 55.8372 23.8075 56.406 23.4873 57.0909C23.167 57.7758 23.0647 58.5433 23.1943 59.2888C23.3237 60.0343 23.6787 60.7215 24.2109 61.2566C24.7431 61.7918 25.4264 62.1488 26.1677 62.279C26.9091 62.4092 27.6723 62.3063 28.3534 61.9843C29.0344 61.6623 29.6001 61.1369 29.9733 60.4796C30.3464 59.8224 30.5089 59.0655 30.4386 58.312L30.4574 58.33C30.4045 57.7001 30.489 57.0663 30.7049 56.4726C30.9207 55.879 31.2629 55.3399 31.7073 54.8929C32.1518 54.446 32.6879 54.1019 33.2782 53.8848C33.8686 53.6678 34.4988 53.5828 35.1252 53.636Z" fill="#080829"/>
<path d="M28.4604 51.629C28.8374 51.2478 29.126 50.7876 29.3056 50.2813C29.4852 49.775 29.5515 49.235 29.4996 48.7L29.5185 48.718C29.4656 48.088 29.5501 47.4539 29.7661 46.8601C29.9821 46.2663 30.3244 45.7271 30.7691 45.2801C31.2138 44.8331 31.7502 44.4891 32.3407 44.2722C32.9312 44.0552 33.5618 43.9705 34.1883 44.024L34.1694 44.006C34.9185 44.0766 35.6708 43.9131 36.3241 43.5378C36.9773 43.1626 37.4996 42.5939 37.8196 41.9092C38.1396 41.2246 38.2419 40.4573 38.1123 39.7121C37.9828 38.9669 37.6279 38.2799 37.0959 37.745C36.564 37.2101 35.881 36.8531 35.1399 36.7229C34.3988 36.5927 33.6359 36.6955 32.955 37.0173C32.2742 37.3392 31.7086 37.8643 31.3355 38.5212C30.9624 39.1781 30.7998 39.9348 30.8699 40.688L30.852 40.67C30.9049 41.2999 30.8205 41.9337 30.6046 42.5274C30.3887 43.121 30.0466 43.6601 29.6021 44.1071C29.1577 44.554 28.6215 44.8981 28.0313 45.1151C27.441 45.3322 26.8106 45.4172 26.1842 45.364L26.2021 45.382C25.5902 45.3268 24.9742 45.4279 24.4114 45.6758C23.8486 45.9237 23.3571 46.3105 22.9825 46.8003C22.6079 47.29 22.3623 47.867 22.2684 48.4776C22.1746 49.0883 22.2355 49.7129 22.4456 50.2935C22.6558 50.8742 23.0082 51.3921 23.4703 51.7993C23.9325 52.2066 24.4894 52.4899 25.0893 52.6231C25.6893 52.7562 26.313 52.7349 26.9027 52.5612C27.4924 52.3874 28.0289 52.0668 28.4624 51.629H28.4604Z" fill="#080829"/>
<path d="M59.2646 41.655H62.2181V56.108H59.2646V41.655Z" fill="#080829"/>
<path d="M63.8908 51.159C63.8866 50.1203 64.1891 49.1038 64.7599 48.2382C65.3307 47.3726 66.1441 46.6968 67.0971 46.2964C68.0502 45.8961 69.1 45.7892 70.1135 45.9893C71.127 46.1893 72.0587 46.6874 72.7905 47.4204C73.5223 48.1533 74.0213 49.0882 74.2243 50.1066C74.4273 51.125 74.3252 52.1811 73.9309 53.1411C73.5366 54.101 72.8678 54.9218 72.0094 55.4992C71.1509 56.0767 70.1413 56.385 69.1085 56.385C68.4228 56.3928 67.7425 56.2632 67.1073 56.0036C66.4722 55.744 65.8947 55.3597 65.4089 54.8731C64.9232 54.3866 64.5387 53.8075 64.278 53.1698C64.0174 52.5321 63.8857 51.8485 63.8908 51.159ZM71.3727 51.159C71.3604 50.7113 71.2171 50.2772 70.9607 49.9109C70.7045 49.5447 70.3465 49.2625 69.9315 49.0998C69.5167 48.937 69.0632 48.9008 68.628 48.9958C68.1927 49.0908 67.795 49.3126 67.4845 49.6337C67.1739 49.9547 66.9644 50.3607 66.8821 50.8009C66.7997 51.241 66.8483 51.6958 67.0216 52.1084C67.1948 52.5209 67.4852 52.873 67.8564 53.1205C68.2276 53.368 68.6631 53.5 69.1085 53.5C69.4134 53.5082 69.7168 53.4527 69.9994 53.3371C70.2821 53.2215 70.5378 53.0483 70.7506 52.8284C70.9633 52.6084 71.1284 52.3465 71.2355 52.0592C71.3426 51.7719 71.3893 51.4654 71.3727 51.159Z" fill="#080829"/>
<path d="M86.0968 46.209V55.609C86.0968 58.935 83.5173 60.341 80.899 60.341C79.9771 60.4104 79.0541 60.2231 78.231 59.7998C77.408 59.3764 76.7168 58.7333 76.2332 57.941L78.7531 56.476C78.9563 56.889 79.2802 57.2297 79.6813 57.4526C80.0824 57.6754 80.5416 57.7698 80.9975 57.723C81.2888 57.7636 81.5856 57.7378 81.8657 57.6475C82.1457 57.5572 82.4021 57.4048 82.6157 57.2014C82.8293 56.998 82.9947 56.749 83.0996 56.4726C83.2046 56.1963 83.2463 55.8998 83.222 55.605V54.7C82.8761 55.1255 82.4359 55.4636 81.9367 55.6871C81.4374 55.9106 80.893 56.0133 80.3471 55.987C79.0482 55.9458 77.8163 55.398 76.9119 54.4594C76.0076 53.5209 75.502 52.2653 75.502 50.9585C75.502 49.6517 76.0076 48.3961 76.9119 47.4576C77.8163 46.519 79.0482 45.9712 80.3471 45.93C80.893 45.9037 81.4374 46.0064 81.9367 46.2299C82.4359 46.4534 82.8761 46.7915 83.222 47.217V46.207L86.0968 46.209ZM83.223 50.96C83.2429 50.4814 83.1198 50.0077 82.8697 49.6C82.6196 49.1922 82.2538 48.8691 81.8196 48.6722C81.3853 48.4752 80.9023 48.4135 80.433 48.4949C79.9635 48.5763 79.5289 48.7971 79.1854 49.129C78.8418 49.4608 78.6048 49.8884 78.5049 50.3568C78.405 50.8253 78.4468 51.313 78.6249 51.7573C78.8031 52.2016 79.1093 52.5822 79.5044 52.85C79.8994 53.1178 80.3649 53.2606 80.8414 53.26C81.1517 53.2818 81.4631 53.238 81.7555 53.1314C82.048 53.0248 82.315 52.8577 82.5393 52.6411C82.7637 52.4244 82.9405 52.1629 83.0582 51.8733C83.1759 51.5838 83.232 51.2727 83.223 50.96Z" fill="#080829"/>
<path d="M87.7697 51.159C87.7656 50.1203 88.0681 49.1038 88.6389 48.2382C89.2097 47.3726 90.0231 46.6968 90.9762 46.2964C91.9292 45.8961 92.9789 45.7892 93.9924 45.9893C95.0059 46.1893 95.9376 46.6874 96.6694 47.4204C97.4012 48.1533 97.9002 49.0882 98.1032 50.1066C98.3063 51.125 98.2041 52.1811 97.8099 53.1411C97.4156 54.101 96.7468 54.9218 95.8884 55.4992C95.0299 56.0767 94.0203 56.385 92.9874 56.385C92.3018 56.3928 91.6215 56.2632 90.9863 56.0036C90.3511 55.744 89.7737 55.3597 89.2879 54.8731C88.8022 54.3866 88.4176 53.8075 88.157 53.1698C87.8963 52.5321 87.7646 51.8485 87.7697 51.159ZM95.2516 51.159C95.2393 50.7113 95.0961 50.2772 94.8397 49.9109C94.5834 49.5447 94.2254 49.2625 93.8105 49.0998C93.3956 48.937 92.9422 48.9008 92.507 48.9958C92.0717 49.0908 91.6739 49.3126 91.3634 49.6337C91.0529 49.9547 90.8434 50.3607 90.7611 50.8009C90.6787 51.241 90.7272 51.6958 90.9005 52.1084C91.0738 52.5209 91.3642 52.873 91.7354 53.1205C92.1065 53.368 92.5421 53.5 92.9874 53.5C93.2923 53.5082 93.5957 53.4527 93.8785 53.3371C94.1611 53.2215 94.4168 53.0483 94.6295 52.8284C94.8422 52.6084 95.0074 52.3465 95.1145 52.0592C95.2215 51.7719 95.2682 51.4654 95.2516 51.159Z" fill="#080829"/>
<path d="M99.582 43.556C99.582 43.2035 99.6859 42.859 99.8807 42.566C100.075 42.2729 100.352 42.0445 100.676 41.9096C101 41.7748 101.356 41.7395 101.7 41.8082C102.043 41.877 102.36 42.0467 102.607 42.2959C102.855 42.5451 103.024 42.8627 103.092 43.2083C103.16 43.554 103.125 43.9123 102.991 44.2379C102.857 44.5635 102.63 44.8419 102.339 45.0377C102.047 45.2335 101.704 45.338 101.354 45.338C100.886 45.3333 100.437 45.1441 100.106 44.8109C99.7749 44.4777 99.5867 44.0272 99.582 43.556ZM99.8804 46.209H102.835V56.109H99.8764L99.8804 46.209Z" fill="#080829"/>
<path d="M115.588 51.159C115.621 51.8133 115.527 52.4679 115.308 53.0852C115.09 53.7025 114.752 54.2703 114.316 54.756C113.878 55.2416 113.35 55.6356 112.76 55.9152C112.171 56.1947 111.532 56.3544 110.882 56.385C110.335 56.415 109.787 56.3222 109.28 56.1133C108.773 55.9043 108.318 55.5845 107.95 55.177V60.068H104.996V46.209H107.95V47.139C108.318 46.7318 108.774 46.4122 109.281 46.2035C109.788 45.9947 110.335 45.902 110.882 45.932C111.533 45.9625 112.172 46.1221 112.76 46.4017C113.35 46.6813 113.879 47.0753 114.316 47.5611C114.753 48.0469 115.091 48.6149 115.309 49.2324C115.527 49.8498 115.622 50.5046 115.588 51.159ZM112.634 51.159C112.622 50.6957 112.475 50.2461 112.212 49.8664C111.947 49.4868 111.577 49.194 111.148 49.0248C110.719 48.8555 110.25 48.8172 109.799 48.9148C109.349 49.0123 108.937 49.2413 108.615 49.5731C108.293 49.905 108.076 50.3249 107.99 50.7803C107.905 51.2357 107.954 51.7063 108.133 52.1334C108.312 52.5605 108.613 52.9249 108.997 53.1812C109.38 53.4374 109.832 53.5741 110.292 53.574C110.609 53.5882 110.925 53.5349 111.219 53.4177C111.513 53.3006 111.78 53.1221 112.002 52.8941C112.222 52.666 112.394 52.3936 112.502 52.0946C112.611 51.7956 112.656 51.4767 112.634 51.159Z" fill="#080829"/>
<path d="M124.701 53.138C124.701 55.415 122.733 56.385 120.607 56.385C119.748 56.4633 118.886 56.2806 118.131 55.8606C117.376 55.4405 116.764 54.8025 116.374 54.029L118.933 52.564C119.036 52.9216 119.259 53.2326 119.562 53.4452C119.866 53.6577 120.234 53.759 120.603 53.732C121.311 53.732 121.666 53.514 121.666 53.119C121.666 52.029 116.823 52.604 116.823 49.179C116.823 47.02 118.634 45.932 120.682 45.932C121.451 45.9075 122.213 46.0911 122.888 46.4636C123.564 46.8362 124.127 47.384 124.52 48.05L122 49.416C121.89 49.1567 121.706 48.9358 121.471 48.7809C121.237 48.626 120.962 48.544 120.682 48.545C120.17 48.545 119.854 48.745 119.854 49.099C119.858 50.228 124.701 49.475 124.701 53.138Z" fill="#080829"/>
<path d="M135.49 46.209V56.109H132.536V55.178C132.195 55.5888 131.763 55.9125 131.274 56.1225C130.784 56.3325 130.253 56.4228 129.722 56.386C127.733 56.386 126.043 54.961 126.043 52.286V46.209H128.996V51.851C128.972 52.0868 128.998 52.3252 129.075 52.5495C129.151 52.7739 129.275 52.9789 129.438 53.1502C129.601 53.3215 129.799 53.4551 130.019 53.5415C130.237 53.628 130.473 53.6654 130.709 53.651C131.792 53.651 132.539 53.018 132.539 51.612V46.212L135.49 46.209Z" fill="#080829"/>
<path d="M152.424 50.03V56.108H149.471V50.287C149.471 49.297 148.998 48.664 148.054 48.664C147.069 48.664 146.517 49.357 146.517 50.525V56.108H143.565V50.287C143.565 49.297 143.093 48.664 142.147 48.664C141.163 48.664 140.612 49.357 140.612 50.525V56.108H137.658V46.208H140.612V47.118C140.918 46.7143 141.32 46.3941 141.78 46.1868C142.241 45.9794 142.747 45.8915 143.25 45.931C143.755 45.9061 144.258 46.0134 144.711 46.2422C145.162 46.4711 145.547 46.8138 145.828 47.237C146.155 46.7943 146.589 46.4423 147.088 46.2139C147.587 45.9855 148.136 45.8882 148.683 45.931C150.944 45.932 152.424 47.555 152.424 50.03Z" fill="#080829"/>
<path d="M154.922 46.148C156.132 46.148 157.114 45.1612 157.114 43.944C157.114 42.7268 156.132 41.74 154.922 41.74C153.712 41.74 152.73 42.7268 152.73 43.944C152.73 45.1612 153.712 46.148 154.922 46.148Z" fill="#080829"/>
</svg>
