<svg width="150" height="46" viewBox="0 0 150 46" fill="none" xmlns="http://www.w3.org/2000/svg">
<g clip-path="url(#clip0_939_96)">
<path d="M13.3265 37.0713C15.0107 37.0713 16.5159 36.7896 17.8423 36.2261C19.1896 35.6626 20.3264 34.9218 21.2528 34.0035C22.1791 33.0643 22.8423 32.0418 23.2423 30.9356L19.3896 29.1513C18.9265 30.32 18.1686 31.2905 17.1159 32.0626C16.0844 32.8139 14.8212 33.1896 13.3265 33.1896C11.8528 33.1896 10.5581 32.8452 9.44226 32.1565C8.32647 31.4678 7.45279 30.5182 6.82121 29.3078C6.18963 28.0765 5.87384 26.647 5.87384 25.0191C5.87384 23.3913 6.18963 21.9721 6.82121 20.7617C7.45279 19.5304 8.32647 18.5809 9.44226 17.913C10.5581 17.2243 11.8528 16.88 13.3265 16.88C14.8212 16.88 16.0844 17.2661 17.1159 18.0383C18.1686 18.7896 18.9265 19.7495 19.3896 20.9183L23.2423 19.1339C22.8423 18.0278 22.1791 17.0157 21.2528 16.0974C20.3264 15.1583 19.1896 14.407 17.8423 13.8435C16.5159 13.28 15.0107 12.9983 13.3265 12.9983C11.6422 12.9983 10.0844 13.3008 8.65279 13.9061C7.2212 14.4904 5.9791 15.3252 4.92647 16.4104C3.87384 17.4748 3.05278 18.7478 2.46331 20.2296C1.87384 21.6904 1.5791 23.2869 1.5791 25.0191C1.5791 26.7513 1.87384 28.3582 2.46331 29.84C3.05278 31.3008 3.87384 32.5739 4.92647 33.6591C5.9791 34.7443 7.2212 35.5895 8.65279 36.1948C10.0844 36.7791 11.6422 37.0713 13.3265 37.0713ZM33.5259 37.0713C35.1891 37.0713 36.7049 36.6957 38.0733 35.9443C39.4417 35.1722 40.5365 34.1182 41.3575 32.7826C42.1786 31.4261 42.5891 29.8921 42.5891 28.1809C42.5891 26.4696 42.1786 24.9461 41.3575 23.6104C40.5575 22.2748 39.4732 21.2208 38.1049 20.4487C36.7364 19.6766 35.2101 19.2904 33.5259 19.2904C31.8207 19.2904 30.2838 19.6766 28.9154 20.4487C27.547 21.2208 26.4523 22.2748 25.6312 23.6104C24.8312 24.9461 24.4312 26.4696 24.4312 28.1809C24.4312 29.8921 24.8312 31.4157 25.6312 32.7513C26.4523 34.0869 27.547 35.1409 28.9154 35.913C30.3049 36.6852 31.8417 37.0713 33.5259 37.0713ZM33.5259 33.3148C32.5996 33.3148 31.768 33.0957 31.0312 32.6574C30.3153 32.2191 29.7469 31.6139 29.3259 30.8417C28.9259 30.0487 28.7259 29.1618 28.7259 28.1809C28.7259 27.2 28.9259 26.3234 29.3259 25.5513C29.7469 24.7792 30.3153 24.1739 31.0312 23.7357C31.768 23.2766 32.5996 23.047 33.5259 23.047C34.4522 23.047 35.2628 23.2766 35.9575 23.7357C36.6733 24.1739 37.2311 24.7792 37.6312 25.5513C38.0522 26.3234 38.2628 27.2 38.2628 28.1809C38.2628 29.1618 38.0522 30.0487 37.6312 30.8417C37.2311 31.6139 36.6733 32.2191 35.9575 32.6574C35.2628 33.0957 34.4522 33.3148 33.5259 33.3148ZM44.7789 36.6957H48.9157V12.9983H44.7789V36.6957ZM51.7879 36.6957H55.9247V12.9983H51.7879V36.6957ZM64.0075 37.0713C66.2391 37.0713 68.0285 36.3408 69.3759 34.88V36.6957H73.2917V25.3635C73.2917 24.1739 72.9864 23.12 72.3759 22.2017C71.7654 21.2834 70.9233 20.5739 69.8496 20.073C68.797 19.5513 67.5654 19.2904 66.1548 19.2904C64.4285 19.2904 62.8917 19.6974 61.5443 20.5113C60.1969 21.3252 59.2707 22.4 58.7653 23.7357L62.1444 25.3635C62.4602 24.5913 62.9549 23.9756 63.6286 23.5165C64.3022 23.0365 65.0917 22.7965 65.9969 22.7965C66.9444 22.7965 67.7023 23.047 68.2707 23.5478C68.8601 24.0279 69.1549 24.633 69.1549 25.3635V25.927L64.0391 26.7409C62.018 27.0747 60.5233 27.7113 59.5548 28.6504C58.5864 29.5896 58.1022 30.7687 58.1022 32.1878C58.1022 33.6904 58.639 34.88 59.7127 35.7565C60.7864 36.633 62.218 37.0713 64.0075 37.0713ZM62.397 32.0313C62.397 30.8417 63.2075 30.0904 64.8285 29.7774L69.1549 29.0574V29.7461C69.1549 30.9148 68.7444 31.9061 67.9233 32.72C67.1233 33.5339 66.0706 33.9409 64.7653 33.9409C64.0707 33.9409 63.5023 33.7739 63.0602 33.44C62.618 33.0852 62.397 32.6156 62.397 32.0313ZM85.5467 37.0713C87.21 37.0713 88.6942 36.6852 89.9994 35.913C91.3047 35.12 92.3362 34.0556 93.0941 32.72C93.852 31.3634 94.2309 29.8505 94.2309 28.1809C94.2309 26.5113 93.852 25.0087 93.0941 23.673C92.3362 22.3165 91.3047 21.2521 89.9994 20.48C88.6942 19.6869 87.2204 19.2904 85.5783 19.2904C83.3468 19.2904 81.5889 19.9896 80.3046 21.3878V12.9983H76.1678V36.6957H80.052V34.7861C80.6836 35.5166 81.4731 36.08 82.4204 36.4765C83.3889 36.873 84.431 37.0713 85.5467 37.0713ZM85.0731 33.3148C84.1678 33.3148 83.3468 33.0957 82.6099 32.6574C81.8941 32.2191 81.3257 31.6139 80.9046 30.8417C80.5047 30.0696 80.3046 29.1826 80.3046 28.1809C80.3046 27.1791 80.5047 26.2921 80.9046 25.52C81.3257 24.7479 81.8941 24.1426 82.6099 23.7043C83.3468 23.2661 84.1678 23.047 85.0731 23.047C86.0204 23.047 86.852 23.2766 87.5678 23.7357C88.3047 24.1739 88.8836 24.7792 89.3046 25.5513C89.7257 26.3234 89.9362 27.2 89.9362 28.1809C89.9362 29.1618 89.7257 30.0487 89.3046 30.8417C88.8836 31.6139 88.3047 32.2191 87.5678 32.6574C86.852 33.0957 86.0204 33.3148 85.0731 33.3148Z" fill="#080829"/>
<path d="M98.3955 36.6957H102.564V32.313H98.3955V36.6957Z" fill="#3F53D8"/>
<path d="M126.81 0.5C120.792 0.506729 115.023 2.87942 110.768 7.09753C106.512 11.3157 104.119 17.0347 104.112 23V41.975C104.113 42.9096 104.488 43.8056 105.155 44.4665C105.822 45.1273 106.725 45.4989 107.668 45.5H126.81C132.829 45.5 138.602 43.1295 142.859 38.9099C147.116 34.6903 149.507 28.9674 149.507 23C149.507 17.0326 147.116 11.3097 142.859 7.09009C138.602 2.87053 132.829 0.5 126.81 0.5Z" fill="#3F53D8"/>
<path d="M114.427 17.7565H118.564V13.3739H114.427V17.7565ZM114.427 36.6956H118.564V19.6661H114.427V36.6956ZM129.836 37.0713C131.499 37.0713 133.015 36.6956 134.384 35.9443C135.751 35.1722 136.847 34.1182 137.668 32.7826C138.489 31.426 138.899 29.8921 138.899 28.1809C138.899 26.4696 138.489 24.946 137.668 23.6104C136.868 22.2748 135.783 21.2208 134.415 20.4487C133.046 19.6765 131.52 19.2904 129.836 19.2904C128.131 19.2904 126.594 19.6765 125.226 20.4487C123.857 21.2208 122.763 22.2748 121.942 23.6104C121.141 24.946 120.741 26.4696 120.741 28.1809C120.741 29.8921 121.141 31.4157 121.942 32.7513C122.763 34.0869 123.857 35.1409 125.226 35.913C126.615 36.6852 128.152 37.0713 129.836 37.0713ZM129.836 33.3148C128.91 33.3148 128.078 33.0956 127.342 32.6574C126.625 32.2191 126.057 31.6139 125.636 30.8417C125.236 30.0487 125.036 29.1618 125.036 28.1809C125.036 27.2 125.236 26.3234 125.636 25.5513C126.057 24.7792 126.625 24.1739 127.342 23.7356C128.078 23.2765 128.91 23.0469 129.836 23.0469C130.762 23.0469 131.573 23.2765 132.268 23.7356C132.983 24.1739 133.541 24.7792 133.942 25.5513C134.362 26.3234 134.573 27.2 134.573 28.1809C134.573 29.1618 134.362 30.0487 133.942 30.8417C133.541 31.6139 132.983 32.2191 132.268 32.6574C131.573 33.0956 130.762 33.3148 129.836 33.3148Z" fill="white"/>
</g>
<defs>
<clipPath id="clip0_939_96">
<rect width="150" height="45" fill="white" transform="translate(0 0.5)"/>
</clipPath>
</defs>
</svg>
