<svg xmlns="http://www.w3.org/2000/svg">

  <symbol viewBox="0 0 18 18" id="cart-icon">
    <path
      d="M3.2153 2.5H0.609375V0.5H5.00345L5.45226 4.5H16.6094V10.4384L4.37878 12.8694L3.2153 2.5ZM16.1094 17.5C15.2809 17.5 14.6094 16.8284 14.6094 16C14.6094 15.1716 15.2809 14.5 16.1094 14.5C16.9378 14.5 17.6094 15.1716 17.6094 16C17.6094 16.8284 16.9378 17.5 16.1094 17.5ZM6.10938 17.5C5.28095 17.5 4.60938 16.8284 4.60938 16C4.60938 15.1716 5.28095 14.5 6.10938 14.5C6.9378 14.5 7.60938 15.1716 7.60938 16C7.60938 16.8284 6.9378 17.5 6.10938 17.5Z" />
  </symbol>

  <symbol viewBox="0 0 44 44" id="analytics-icon">
        <path fill-rule="evenodd" clip-rule="evenodd"
      d="M13.4386 3.66748H30.5601C36.7953 3.66748 40.3153 7.20398 40.3336 13.4392V30.5625C40.3336 36.7959 36.7953 40.3342 30.5601 40.3342H13.4386C7.20349 40.3342 3.66699 36.7959 3.66699 30.5625V13.4392C3.66699 7.20398 7.20349 3.66748 13.4386 3.66748ZM22.0901 32.7442C22.8803 32.7442 23.5385 32.1575 23.6118 31.3692V12.6875C23.6851 12.1192 23.412 11.549 22.917 11.2392C22.4018 10.9275 21.7785 10.9275 21.2853 11.2392C20.7885 11.549 20.5153 12.1192 20.5685 12.6875V31.3692C20.662 32.1575 21.3201 32.7442 22.0901 32.7442ZM30.5253 32.7442C31.2953 32.7442 31.9535 32.1575 32.047 31.3692V25.3559C32.1001 24.7674 31.827 24.2192 31.3301 23.9075C30.837 23.5959 30.2136 23.5959 29.7003 23.9075C29.2035 24.2192 28.9303 24.7674 29.0036 25.3559V31.3692C29.077 32.1575 29.7351 32.7442 30.5253 32.7442ZM15.0685 31.3692C14.9951 32.1575 14.337 32.7442 13.5468 32.7442C12.7585 32.7442 12.0985 32.1575 12.027 31.3692V18.7009C11.972 18.1307 12.2451 17.5642 12.742 17.2525C13.2351 16.9409 13.8603 16.9409 14.3553 17.2525C14.8485 17.5642 15.1253 18.1307 15.0685 18.7009V31.3692Z" />
  </symbol>

  <symbol viewBox="0 0 44 44" id="live-icon">
    <path fill-rule="evenodd" clip-rule="evenodd"
      d="M31.4962 8.08508C31.4962 5.64675 33.4762 3.66675 35.9146 3.66675C38.3529 3.66675 40.3329 5.64675 40.3329 8.08508C40.3329 10.5235 38.3529 12.5035 35.9146 12.5035C33.4762 12.5035 31.4962 10.5235 31.4962 8.08508ZM24.4377 27.0588L29.736 20.2223L29.6627 20.259C29.956 19.8557 30.011 19.3423 29.8094 18.884C29.6095 18.4257 29.1677 18.114 28.6929 18.0773C28.196 18.0223 27.7029 18.2423 27.4077 18.6457L22.9729 24.384L17.8927 20.3873C17.581 20.149 17.2144 20.0555 16.8477 20.094C16.4829 20.149 16.1529 20.3488 15.931 20.6422L10.5062 27.7023L10.3944 27.8673C10.0827 28.4522 10.2294 29.2038 10.7794 29.609C11.036 29.774 11.311 29.884 11.6227 29.884C12.0462 29.9023 12.4477 29.6805 12.7044 29.334L17.306 23.4105L22.531 27.3357L22.696 27.4438C23.2827 27.7555 24.016 27.6107 24.4377 27.0588ZM28.3244 6.93063C28.251 7.38896 28.2144 7.8473 28.2144 8.30563C28.2144 12.4307 31.551 15.7655 35.6577 15.7655C36.116 15.7655 36.556 15.7123 37.0144 15.639V30.4322C37.0144 36.649 33.3477 40.334 27.1144 40.334H13.5679C7.33267 40.334 3.66602 36.649 3.66602 30.4322V16.8673C3.66602 10.634 7.33267 6.93063 13.5679 6.93063H28.3244Z" />
  </symbol>

  <symbol viewBox="0 0 44 44" id="file-icon">
    <path fill-rule="evenodd" clip-rule="evenodd"
      d="M24.6577 8.94706H30.286C37.051 8.94706 40.351 12.5587 40.3327 19.9654V28.8937C40.3327 35.9704 35.9693 40.3337 28.8743 40.3337H15.106C8.04769 40.3337 3.66602 35.9704 3.66602 28.8754V15.1071C3.66602 7.51706 7.03936 3.66706 13.6943 3.66706H16.591C18.2978 3.64873 19.891 4.43706 20.936 5.77539L22.5493 7.92039C23.0627 8.56206 23.8327 8.94706 24.6577 8.94706ZM13.511 28.0321H30.4877C31.2393 28.0321 31.8443 27.4087 31.8443 26.6571C31.8443 25.8871 31.2393 25.2821 30.4877 25.2821H13.511C12.741 25.2821 12.136 25.8871 12.136 26.6571C12.136 27.4087 12.741 28.0321 13.511 28.0321Z" />
  </symbol>

  <symbol viewBox="0 0 44 44" id="share-icon">
    <path
      d="M39.2985 4.73372C38.3814 3.79251 37.0242 3.44187 35.7587 3.81097L6.24832 12.3926C4.9131 12.7635 3.96671 13.8284 3.71178 15.1811C3.45134 16.5579 4.36104 18.3056 5.54953 19.0364L14.7768 24.7076C15.7232 25.2889 16.9447 25.1431 17.7278 24.3533L28.294 13.7213C28.8259 13.1677 29.7062 13.1677 30.2381 13.7213C30.77 14.2565 30.77 15.1239 30.2381 15.6776L19.6536 26.3113C18.8686 27.0994 18.7219 28.3266 19.2996 29.2789L24.9376 38.5987C25.5979 39.706 26.735 40.3335 27.9822 40.3335C28.1289 40.3335 28.294 40.3335 28.4407 40.315C29.8713 40.1304 31.0084 39.1523 31.4303 37.7682L40.1788 8.29553C40.564 7.04059 40.2155 5.67492 39.2985 4.73372Z" />
  </symbol>

  <symbol viewBox="0 0 44 44" id="notifications-icon">
    <path fill-rule="evenodd" clip-rule="evenodd"
      d="M34.2967 16.1266C34.2967 18.4291 34.9052 19.7863 36.2445 21.3502C37.2594 22.5024 37.5837 23.9814 37.5837 25.586C37.5837 27.1887 37.0571 28.7102 36.0021 29.9455C34.621 31.4264 32.6732 32.3718 30.6853 32.5361C27.8046 32.7817 24.9221 32.9885 22.0013 32.9885C19.0787 32.9885 16.1979 32.8648 13.3172 32.5361C11.3275 32.3718 9.37969 31.4264 8.00037 29.9455C6.94539 28.7102 6.41699 27.1887 6.41699 25.586C6.41699 23.9814 6.74314 22.5024 7.75621 21.3502C9.13735 19.7863 9.70584 18.4291 9.70584 16.1266V15.3455C9.70584 12.2619 10.4748 10.2456 12.0582 8.27171C14.4123 5.39307 18.1858 3.66663 21.9193 3.66663H22.0833C25.8969 3.66663 29.7925 5.47616 32.1065 8.47851C33.6079 10.4118 34.2967 12.3432 34.2967 15.3455V16.1266ZM16.6354 36.7782C16.6354 35.8549 17.4827 35.4321 18.2662 35.2511C19.1827 35.0573 24.7674 35.0573 25.6839 35.2511C26.4674 35.4321 27.3146 35.8549 27.3146 36.7782C27.2691 37.6571 26.7534 38.4363 26.041 38.9311C25.1172 39.6513 24.0331 40.1073 22.8997 40.2717C22.2729 40.3529 21.6571 40.3548 21.0522 40.2717C19.917 40.1073 18.8329 39.6513 17.9109 38.9293C17.1966 38.4363 16.681 37.6571 16.6354 36.7782Z" />
  </symbol>

  <symbol viewBox="0 0 44 44" id="like-icon">
    <path fill-rule="evenodd" clip-rule="evenodd"
      d="M29.0578 4.58464C30.2146 4.58464 31.3696 4.74781 32.4678 5.11631C39.2346 7.31631 41.6729 14.7413 39.6361 21.2313C38.4811 24.5478 36.5928 27.5746 34.1196 30.0478C30.5794 33.4761 26.6946 36.5195 22.5128 39.1411L22.0544 39.418L21.5778 39.1228C17.3813 36.5195 13.4744 33.4761 9.90122 30.0295C7.44455 27.5563 5.55438 24.5478 4.38105 21.2313C2.30938 14.7413 4.74772 7.31631 11.5879 5.07781C12.1196 4.89448 12.6678 4.76614 13.2178 4.69464H13.4378C13.9529 4.61948 14.4644 4.58464 14.9778 4.58464H15.1794C16.3344 4.61948 17.4528 4.82114 18.5363 5.18964H18.6444C18.7178 5.22448 18.7728 5.26298 18.8094 5.29781C19.2146 5.42798 19.5978 5.57464 19.9644 5.77631L20.6611 6.08798C20.8294 6.17776 21.0184 6.31495 21.1817 6.43351C21.2852 6.50863 21.3783 6.57627 21.4494 6.61964C21.4793 6.63729 21.5097 6.65504 21.5404 6.67293C21.6976 6.7647 21.8613 6.86028 21.9994 6.96614C24.0363 5.40964 26.5094 4.56631 29.0578 4.58464ZM33.9344 17.7846C34.6861 17.7645 35.3278 17.1613 35.3828 16.3895V16.1713C35.4378 13.6028 33.8813 11.2763 31.5144 10.378C30.7628 10.1195 29.9378 10.5246 29.6628 11.2946C29.4061 12.0646 29.8094 12.908 30.5794 13.1811C31.7546 13.6211 32.5411 14.778 32.5411 16.0595V16.1163C32.5063 16.5361 32.6328 16.9413 32.8894 17.253C33.1461 17.5646 33.5311 17.7461 33.9344 17.7846Z" />
  </symbol>

  <symbol viewBox="0 0 44 44" id="payment-icon">
    <path fill-rule="evenodd" clip-rule="evenodd"
      d="M32.5767 15.3666H40.3337C40.3337 9.13842 36.6018 5.5 30.2789 5.5H13.7218C7.39884 5.5 3.66699 9.13842 3.66699 15.2872V28.7128C3.66699 34.8616 7.39884 38.5 13.7218 38.5H30.2789C36.6018 38.5 40.3337 34.8616 40.3337 28.7128V28.1408H32.5767C28.9766 28.1408 26.0581 25.2955 26.0581 21.7855C26.0581 18.2756 28.9766 15.4302 32.5767 15.4302V15.3666ZM32.5767 18.0994H38.9648C39.7208 18.0994 40.3337 18.697 40.3337 19.434V24.0734C40.3249 24.8069 39.7171 25.3995 38.9648 25.408H32.7233C30.9008 25.4319 29.3071 24.2153 28.8937 22.4846C28.6867 21.4102 28.9773 20.3015 29.6877 19.4557C30.398 18.6099 31.4555 18.1135 32.5767 18.0994ZM32.8537 22.9771H33.4567C34.2307 22.9771 34.8581 22.3654 34.8581 21.6107C34.8581 20.8561 34.2307 20.2443 33.4567 20.2443H32.8537C32.4835 20.2401 32.127 20.3805 31.8637 20.6342C31.6004 20.888 31.4522 21.2339 31.4522 21.5948C31.4522 22.3521 32.077 22.9684 32.8537 22.9771ZM12.353 15.3666H22.7011C23.4751 15.3666 24.1026 14.7549 24.1026 14.0002C24.1026 13.2456 23.4751 12.6338 22.7011 12.6338H12.353C11.5853 12.6338 10.9604 13.2359 10.9515 13.9844C10.9514 14.7416 11.5763 15.3579 12.353 15.3666Z" />
  </symbol>

  <symbol viewBox="0 0 44 44" id="users-icon">
    <path fill-rule="evenodd" clip-rule="evenodd"
      d="M29.6233 15.0936C29.6233 19.4014 26.1891 22.8555 21.9063 22.8555C17.6234 22.8555 14.1892 19.4014 14.1892 15.0936C14.1892 10.7842 17.6234 7.33337 21.9063 7.33337C26.1891 7.33337 29.6233 10.7842 29.6233 15.0936ZM21.9063 36.6667C15.6158 36.6667 10.2445 35.6694 10.2445 31.6803C10.2445 27.6896 15.5813 26.656 21.9063 26.656C28.1968 26.656 33.568 27.6533 33.568 31.644C33.568 35.6331 28.2312 36.6667 21.9063 36.6667ZM32.9211 15.2336C32.9211 17.4296 32.2661 19.4753 31.117 21.176C30.9988 21.351 31.1038 21.5871 31.3123 21.6234C31.5996 21.673 31.8967 21.701 32.1988 21.7093C35.211 21.7885 37.9147 19.8386 38.6616 16.9029C39.768 12.5423 36.5194 8.62752 32.3826 8.62752C31.9328 8.62752 31.5027 8.6754 31.0841 8.76126C31.0267 8.77446 30.9659 8.80088 30.9331 8.85207C30.8937 8.91481 30.9233 8.99902 30.9627 9.0535C32.2053 10.8053 32.9211 12.9419 32.9211 15.2336ZM37.9098 24.7731C39.9338 25.171 41.2652 25.9833 41.8167 27.1639C42.2829 28.1331 42.2829 29.2575 41.8167 30.2251C40.973 32.0561 38.2529 32.6439 37.1957 32.7958C36.9774 32.8289 36.8017 32.639 36.8247 32.4194C37.3648 27.3455 33.0688 24.9398 31.9575 24.3867C31.9098 24.362 31.9 24.324 31.9049 24.3009C31.9082 24.2844 31.9279 24.2579 31.964 24.253C34.3689 24.2084 36.9544 24.5386 37.9098 24.7731ZM11.8011 21.7091C12.1031 21.7009 12.3986 21.6744 12.6875 21.6233C12.896 21.5869 13.0011 21.3508 12.8829 21.1758C11.7338 19.4752 11.0788 17.4294 11.0788 15.2335C11.0788 12.9417 11.7945 10.8052 13.0372 9.05334C13.0766 8.99885 13.1045 8.91464 13.0667 8.8519C13.0339 8.80237 12.9715 8.7743 12.9157 8.76109C12.4955 8.67523 12.0654 8.62735 11.6156 8.62735C7.47879 8.62735 4.23012 12.5421 5.33818 16.9027C6.08509 19.8384 8.78875 21.7884 11.8011 21.7091ZM12.0941 24.2999C12.099 24.3246 12.0892 24.361 12.0432 24.3874C10.9302 24.9405 6.6342 27.3462 7.17428 32.4184C7.19726 32.6396 7.02325 32.8279 6.80492 32.7965C5.74775 32.6446 3.02767 32.0568 2.1839 30.2257C1.71605 29.2565 1.71605 28.1338 2.1839 27.1646C2.73547 25.984 4.06514 25.1717 6.0892 24.7721C7.04623 24.5393 9.63006 24.2091 12.0367 24.2536C12.0728 24.2586 12.0908 24.285 12.0941 24.2999Z" />
  </symbol>

</svg>